<?xml version="1.0" standalone="no"?>
<!DOCTYPE svg PUBLIC "-//W3C//DTD SVG 20010904//EN"
 "http://www.w3.org/TR/2001/REC-SVG-20010904/DTD/svg10.dtd">
<svg version="1.0" xmlns="http://www.w3.org/2000/svg"
 width="1024.000000pt" height="1024.000000pt" viewBox="0 0 1024.000000 1024.000000"
 preserveAspectRatio="xMidYMid meet">

<g transform="translate(0.000000,1024.000000) scale(0.100000,-0.100000)"
fill="#000000" stroke="none">
<path d="M3675 8050 c-37 -11 -73 -43 -86 -77 -5 -14 -9 -473 -9 -1150 0
-1247 -4 -1170 65 -1213 63 -39 97 -30 323 86 421 216 452 234 527 309 101
100 157 221 181 387 l6 47 47 -38 c78 -65 194 -111 281 -111 52 0 147 26 210
58 l55 28 120 -63 c66 -35 217 -114 335 -175 118 -61 298 -153 400 -206 322
-166 291 -146 318 -210 27 -63 69 -127 120 -184 24 -27 33 -45 29 -61 -2 -12
-39 -155 -81 -317 -42 -162 -100 -388 -129 -502 -28 -114 -55 -208 -59 -208
-5 0 -8 5 -8 10 0 25 -77 170 -142 267 -58 86 -69 109 -60 122 114 160 119
308 15 459 -127 185 -393 215 -542 61 -22 -23 -45 -54 -51 -69 l-11 -27 -77
26 -77 26 -335 0 c-330 -1 -336 -1 -405 -25 l-70 -25 -35 50 c-89 125 -225
171 -385 130 -112 -30 -190 -98 -243 -213 -22 -48 -26 -71 -26 -147 -1 -97 17
-153 70 -222 l25 -33 -62 -93 c-117 -175 -222 -421 -259 -607 -9 -46 -15 -57
-39 -68 -35 -15 -51 -50 -51 -107 l0 -45 -72 0 c-236 -1 -472 -166 -598 -417
-97 -194 -122 -447 -64 -644 42 -143 152 -277 279 -338 39 -19 126 -47 195
-63 69 -17 158 -39 198 -50 l72 -21 0 -86 c0 -47 4 -92 8 -98 10 -15 3423 -19
3486 -4 21 5 44 15 50 21 18 18 -35 56 -108 79 -67 21 -277 55 -408 66 l-78 7
0 819 c0 898 2 863 -59 888 -24 11 -30 20 -36 57 -3 25 -13 70 -21 101 -8 31
-13 57 -11 59 5 6 110 -77 195 -153 l72 -64 0 -395 0 -395 23 6 c153 47 313
137 423 239 88 81 141 150 189 244 72 141 69 104 73 937 l4 750 47 40 c141
120 211 275 211 467 0 180 -56 314 -185 444 -105 107 -184 145 -450 219 -110
30 -324 91 -475 135 -369 105 -748 208 -813 220 -70 13 -148 -2 -210 -40 -57
-35 -57 -35 -57 -11 0 31 -51 113 -105 167 -97 97 -250 147 -384 124 -77 -13
-191 -64 -232 -103 l-26 -25 -11 97 c-29 252 -143 445 -322 543 -145 79 -607
308 -630 312 -14 3 -39 1 -55 -4z m239 -328 c133 -69 130 -64 136 -305 l5
-201 40 -11 c69 -18 65 2 62 -319 -2 -161 -7 -297 -10 -303 -4 -6 -27 -14 -52
-17 l-45 -7 0 -261 c0 -284 -4 -309 -58 -344 -43 -29 -164 -94 -173 -94 -5 0
-9 427 -9 955 0 525 3 955 8 955 4 -1 47 -22 96 -48z m401 -822 c0 -254 -1
-275 -17 -278 -17 -3 -18 15 -18 278 0 263 1 281 18 278 16 -3 17 -24 17 -278z
m768 79 c49 -13 115 -73 138 -124 24 -51 24 -129 0 -180 -37 -80 -111 -125
-203 -125 -166 1 -267 168 -192 318 48 97 150 141 257 111z m1083 -258 c526
-150 524 -149 524 -216 0 -39 -41 -85 -76 -85 -13 0 -229 59 -479 130 -251 72
-463 130 -471 130 -28 0 -74 56 -74 90 0 34 46 90 73 90 8 0 234 -63 503 -139z
m981 -442 c72 -27 145 -98 180 -176 58 -125 24 -274 -83 -372 -64 -59 -124
-81 -215 -81 -93 0 -166 28 -224 87 -119 121 -136 287 -45 425 81 122 242 171
387 117z m32 -1195 c21 -26 21 -36 21 -485 l0 -458 -24 -27 c-18 -21 -32 -28
-61 -28 -29 0 -43 7 -61 28 l-24 27 0 461 c0 460 0 462 22 485 32 34 99 32
127 -3z m-1685 -21 c245 -93 492 -365 633 -698 50 -120 98 -267 108 -339 l7
-46 -1206 0 -1206 0 6 28 c28 124 64 238 110 350 127 309 366 591 580 682 110
48 127 49 529 47 366 -2 382 -3 439 -24z m-1912 -1359 c62 -20 114 -37 115
-39 3 -2 -57 -208 -62 -214 -2 -2 -47 6 -100 18 -52 12 -102 21 -109 21 -16 0
-81 -132 -126 -257 -18 -51 -36 -93 -39 -93 -13 0 -60 55 -70 83 -14 35 -6 69
59 261 55 167 82 215 131 239 49 24 74 21 201 -19z m1061 -59 c294 -62 501
-349 459 -638 -32 -225 -211 -419 -434 -472 -102 -24 -248 -16 -345 17 -31 11
-31 13 -35 87 -3 42 -8 83 -12 91 -5 12 4 19 41 28 56 15 140 69 169 109 54
74 72 201 40 278 -24 57 -70 109 -121 136 l-45 24 6 61 c8 77 -13 145 -61 202
-19 22 -35 42 -35 45 0 3 89 29 145 40 45 10 164 6 228 -8z m-713 -46 c95 -25
131 -46 170 -100 23 -32 30 -53 30 -88 0 -25 -4 -51 -8 -58 -5 -9 -51 -2 -176
27 -93 22 -170 41 -172 43 -2 2 29 115 51 185 6 16 16 15 105 -9z m1465 -64
c31 -30 32 -68 3 -95 -48 -44 -121 -13 -121 52 0 62 73 89 118 43z m770 -1
c31 -33 32 -70 3 -101 -21 -22 -26 -23 -208 -23 -185 0 -187 0 -210 24 -31 34
-29 74 4 103 26 22 34 23 207 23 l180 0 24 -26z m-2235 -328 c419 -102 420
-103 420 -173 0 -71 -61 -126 -139 -126 -20 0 -112 19 -206 41 -93 23 -267 64
-385 92 -118 28 -216 53 -217 54 -3 2 47 144 72 208 5 13 12 14 38 7 18 -6
205 -52 417 -103z m1897 -47 c102 -49 133 -183 60 -265 -40 -47 -76 -64 -132
-64 -96 0 -175 79 -175 175 0 45 16 84 48 119 55 58 126 71 199 35z m-2460
-223 c2 -2 -13 -59 -33 -127 -20 -68 -38 -132 -41 -142 -5 -14 -12 -17 -37
-11 -155 33 -191 167 -77 285 l48 50 69 -26 c37 -14 69 -27 71 -29z m328 -105
c233 -59 324 -87 347 -107 56 -52 62 -133 12 -185 -38 -39 -87 -52 -155 -39
-66 13 -473 111 -478 116 -3 3 67 240 76 257 3 4 12 6 21 3 10 -3 89 -23 177
-45z m1815 -136 c82 -42 78 -170 -7 -210 -76 -36 -163 23 -163 111 0 39 5 51
34 80 39 39 86 45 136 19z m603 -25 c22 -25 27 -40 27 -81 0 -42 -5 -55 -28
-79 -57 -56 -140 -46 -182 23 -24 39 -25 80 -3 118 39 66 135 76 186 19z"/>
<path d="M3971 7044 c-20 -25 -21 -40 -21 -216 0 -187 0 -189 25 -213 30 -31
46 -31 73 -2 21 22 22 32 22 224 0 181 -2 201 -18 216 -27 24 -58 21 -81 -9z"/>
<path d="M4965 6825 c-50 -49 -15 -135 55 -135 72 0 109 96 54 139 -36 28 -79
27 -109 -4z"/>
<path d="M6969 6085 c-38 -21 -59 -59 -59 -108 0 -76 69 -135 141 -120 39 8
95 62 104 101 20 94 -98 175 -186 127z"/>
<path d="M4561 4729 c-156 -45 -286 -277 -226 -403 56 -117 210 -108 340 19
100 97 142 205 110 280 -21 52 -42 74 -90 96 -44 20 -82 22 -134 8z"/>
<path d="M5400 4729 c-79 -24 -120 -80 -120 -165 0 -64 30 -122 101 -198 92
-99 183 -139 265 -116 53 15 89 54 105 113 15 55 5 108 -34 181 -75 142 -206
218 -317 185z"/>
<path d="M4942 4326 c-88 -31 -110 -110 -49 -171 72 -72 206 -73 285 0 91 83
6 186 -153 184 -27 0 -65 -6 -83 -13z"/>
<path d="M4710 3269 c-131 -52 -150 -271 -31 -353 111 -77 249 -11 285 136 16
67 -32 169 -98 209 -34 21 -113 25 -156 8z"/>
<path d="M2808 7651 c-52 -41 -57 -112 -12 -153 33 -30 471 -218 508 -218 39
0 83 31 97 68 13 33 -5 86 -35 105 -45 30 -462 209 -496 214 -26 4 -42 -1 -62
-16z"/>
<path d="M2677 6932 c-38 -40 -37 -93 2 -133 l29 -29 282 0 c174 0 289 4 301
10 51 28 60 111 17 157 -21 23 -22 23 -313 23 l-291 0 -27 -28z"/>
<path d="M3270 6451 c-14 -5 -110 -44 -215 -88 -104 -44 -205 -86 -223 -93
-18 -7 -44 -26 -58 -43 -32 -38 -28 -88 11 -126 44 -45 84 -36 320 66 116 50
220 94 233 98 29 8 62 61 62 97 0 34 -45 85 -80 92 -14 3 -36 1 -50 -3z"/>
</g>
</svg>
